<svg id="Layer_1" data-name="Layer 1" xmlns="http://www.w3.org/2000/svg" viewBox="0 0 93.66 93.48"><defs><style>.cls-1{fill:#9d4edc;}.cls-2{fill:#5a199a;}.cls-3{fill:#7b2dbe;}.cls-4{fill:#0682c9;}.cls-5{fill:#6f3de6;}</style></defs><path class="cls-1" d="M57.86,92.36q0-13.2,0-26.42A9.87,9.87,0,0,0,67.7,56l16.94,0,19.89,0A44.14,44.14,0,0,1,95.32,84a46,46,0,0,1-27.13,17.63,35.31,35.31,0,0,1-10.34,1,1.23,1.23,0,0,0-.22-.83" transform="translate(-10.91 -9.26)"/><path class="cls-2" d="M104.53,55.9l-19.89,0L67.7,56a9.86,9.86,0,0,0-10.05-9.69V9.32a42.67,42.67,0,0,1,23.23,6c12.49,7.21,20.12,18,23,32.12A34.58,34.58,0,0,1,104.53,55.9Z" transform="translate(-10.91 -9.26)"/><path class="cls-3" d="M57.65,9.32V46.26A9.9,9.9,0,0,0,48,56.13l-37,0a42.4,42.4,0,0,1,5.52-22.39A46.1,46.1,0,0,1,45.32,10.85,36.72,36.72,0,0,1,57.65,9.32Z" transform="translate(-10.91 -9.26)"/><path class="cls-4" d="M57.63,101.85a1.23,1.23,0,0,1,.22.83,42.63,42.63,0,0,1-22.46-5.53A46.07,46.07,0,0,1,12.48,68.33,36.29,36.29,0,0,1,11,56.11l37,0a9.87,9.87,0,0,0,9.87,9.81q0,13.22,0,26.42" transform="translate(-10.91 -9.26)"/><path class="cls-5" d="M57.85,65.94A9.84,9.84,0,1,1,67.7,56,9.87,9.87,0,0,1,57.85,65.94Z" transform="translate(-10.91 -9.26)"/></svg>